<svg width="180" height="26" viewBox="0 0 200 29" fill="none" xmlns="http://www.w3.org/2000/svg">
<path d="M25.2614 6.36354C25.2614 5.70048 25.7895 5.16296 26.441 5.16296H34.2266C34.878 5.16296 35.4062 5.70048 35.4062 6.36354V14.2873C35.4062 14.9504 34.878 15.4879 34.2266 15.4879H26.441C25.7895 15.4879 25.2614 14.9504 25.2614 14.2873V6.36354Z" fill="#1D5ACD"/>
<path d="M20.2999 23.7705C20.2999 23.439 20.564 23.1702 20.8897 23.1702H24.7825C25.1083 23.1702 25.3723 23.439 25.3723 23.7705V27.7324C25.3723 28.0639 25.1083 28.3327 24.7825 28.3327H20.8897C20.564 28.3327 20.2999 28.0639 20.2999 27.7324V23.7705Z" fill="#1D5ACD"/>
<path d="M0 2.40115C0 1.07503 1.05627 0 2.35926 0H17.9303C19.2333 0 20.2896 1.07503 20.2896 2.40115V18.2487C20.2896 19.5749 19.2333 20.6499 17.9303 20.6499H2.35926C1.05627 20.6499 0 19.5749 0 18.2487V2.40115Z" fill="#1D5ACD"/>
<path d="M200 4.80066V22.5692H197.853V4.80066H200Z" fill="#333333"/>
<path d="M194.228 9.41266V22.571H192.081V20.6261C191.672 21.2984 191.098 21.8266 190.359 22.2108C189.635 22.579 188.833 22.7631 187.952 22.7631C186.946 22.7631 186.041 22.555 185.239 22.1388C184.437 21.7066 183.8 21.0663 183.328 20.2179C182.872 19.3695 182.644 18.337 182.644 17.1204V9.41266H184.767V16.8322C184.767 18.1289 185.09 19.1293 185.734 19.8337C186.379 20.522 187.26 20.8662 188.377 20.8662C189.525 20.8662 190.429 20.506 191.09 19.7857C191.751 19.0653 192.081 18.0168 192.081 16.6401V9.41266H194.228Z" fill="#333333"/>
<path d="M180.248 11.2129H177.535V22.5704H175.388V11.2129H173.713V9.41202H175.388V8.47557C175.388 7.00286 175.757 5.93035 176.497 5.25802C177.251 4.56969 178.455 4.22552 180.106 4.22552V6.0504C179.162 6.0504 178.494 6.2425 178.101 6.62668C177.723 6.99486 177.535 7.61115 177.535 8.47557V9.41202H180.248V11.2129Z" fill="#333333"/>
<path d="M167.253 22.7856C166.262 22.7856 165.374 22.6175 164.587 22.2814C163.801 21.9292 163.179 21.449 162.723 20.8407C162.267 20.2164 162.016 19.504 161.968 18.7037H164.186C164.249 19.36 164.548 19.8962 165.083 20.3124C165.633 20.7286 166.349 20.9367 167.23 20.9367C168.047 20.9367 168.692 20.7526 169.164 20.3845C169.636 20.0163 169.872 19.5521 169.872 18.9918C169.872 18.4155 169.62 17.9913 169.117 17.7192C168.614 17.431 167.835 17.1509 166.781 16.8788C165.822 16.6227 165.035 16.3665 164.422 16.1104C163.824 15.8383 163.305 15.4461 162.865 14.9338C162.44 14.4056 162.228 13.7173 162.228 12.8688C162.228 12.1965 162.425 11.5802 162.818 11.0199C163.211 10.4597 163.769 10.0195 164.493 9.69931C165.216 9.36315 166.042 9.19507 166.97 9.19507C168.401 9.19507 169.557 9.56325 170.438 10.2996C171.319 11.036 171.791 12.0444 171.854 13.3251H169.707C169.66 12.6367 169.384 12.0845 168.881 11.6683C168.393 11.2521 167.733 11.044 166.899 11.044C166.129 11.044 165.515 11.212 165.059 11.5482C164.603 11.8844 164.375 12.3246 164.375 12.8688C164.375 13.3011 164.509 13.6612 164.776 13.9494C165.059 14.2215 165.405 14.4456 165.814 14.6217C166.239 14.7818 166.821 14.9659 167.56 15.174C168.488 15.4301 169.243 15.6862 169.825 15.9423C170.407 16.1824 170.902 16.5506 171.311 17.0469C171.736 17.5431 171.956 18.1914 171.972 18.9918C171.972 19.7121 171.775 20.3605 171.382 20.9367C170.989 21.513 170.43 21.9692 169.707 22.3054C168.999 22.6255 168.181 22.7856 167.253 22.7856Z" fill="#333333"/>
<path d="M154.921 22.7856C153.93 22.7856 153.041 22.6175 152.255 22.2814C151.468 21.9292 150.847 21.449 150.391 20.8407C149.935 20.2164 149.683 19.504 149.636 18.7037H151.854C151.916 19.36 152.215 19.8962 152.75 20.3124C153.301 20.7286 154.016 20.9367 154.897 20.9367C155.715 20.9367 156.36 20.7526 156.832 20.3845C157.303 20.0163 157.539 19.5521 157.539 18.9918C157.539 18.4155 157.288 17.9913 156.784 17.7192C156.281 17.431 155.502 17.1509 154.449 16.8788C153.489 16.6227 152.703 16.3665 152.089 16.1104C151.492 15.8383 150.973 15.4461 150.532 14.9338C150.108 14.4056 149.895 13.7173 149.895 12.8688C149.895 12.1965 150.092 11.5802 150.485 11.0199C150.878 10.4597 151.437 10.0195 152.16 9.69931C152.884 9.36315 153.709 9.19507 154.637 9.19507C156.069 9.19507 157.225 9.56325 158.106 10.2996C158.986 11.036 159.458 12.0444 159.521 13.3251H157.374C157.327 12.6367 157.052 12.0845 156.548 11.6683C156.061 11.2521 155.4 11.044 154.567 11.044C153.796 11.044 153.183 11.212 152.726 11.5482C152.27 11.8844 152.042 12.3246 152.042 12.8688C152.042 13.3011 152.176 13.6612 152.443 13.9494C152.726 14.2215 153.072 14.4456 153.481 14.6217C153.906 14.7818 154.488 14.9659 155.227 15.174C156.155 15.4301 156.91 15.6862 157.492 15.9423C158.074 16.1824 158.57 16.5506 158.978 17.0469C159.403 17.5431 159.623 18.1914 159.639 18.9918C159.639 19.7121 159.442 20.3605 159.049 20.9367C158.656 21.513 158.098 21.9692 157.374 22.3054C156.666 22.6255 155.849 22.7856 154.921 22.7856Z" fill="#333333"/>
<path d="M147.509 15.4861C147.509 15.9023 147.486 16.3425 147.439 16.8067H137.105C137.184 18.1034 137.616 19.1199 138.403 19.8562C139.205 20.5766 140.172 20.9367 141.305 20.9367C142.233 20.9367 143.003 20.7206 143.617 20.2884C144.246 19.8402 144.686 19.2479 144.938 18.5116H147.25C146.904 19.7762 146.212 20.8087 145.174 21.6091C144.136 22.3934 142.846 22.7856 141.305 22.7856C140.078 22.7856 138.977 22.5055 138.002 21.9452C137.042 21.385 136.287 20.5926 135.737 19.5681C135.186 18.5276 134.911 17.327 134.911 15.9663C134.911 14.6057 135.178 13.4131 135.713 12.3886C136.248 11.3641 136.995 10.5797 137.955 10.0355C138.93 9.4752 140.046 9.19507 141.305 9.19507C142.531 9.19507 143.617 9.4672 144.56 10.0115C145.504 10.5557 146.228 11.3081 146.731 12.2686C147.25 13.213 147.509 14.2855 147.509 15.4861ZM145.292 15.0299C145.292 14.1975 145.111 13.4851 144.749 12.8929C144.387 12.2846 143.892 11.8283 143.263 11.5242C142.649 11.204 141.965 11.044 141.21 11.044C140.125 11.044 139.197 11.3961 138.426 12.1005C137.671 12.8048 137.239 13.7813 137.129 15.0299H145.292Z" fill="#333333"/>
<path d="M120.575 15.9663C120.575 14.6057 120.842 13.4211 121.377 12.4126C121.911 11.3881 122.651 10.5957 123.594 10.0355C124.554 9.4752 125.647 9.19507 126.874 9.19507C128.462 9.19507 129.768 9.58726 130.79 10.3716C131.828 11.156 132.512 12.2445 132.843 13.6372H130.531C130.31 12.8368 129.878 12.2045 129.233 11.7403C128.604 11.2761 127.817 11.044 126.874 11.044C125.647 11.044 124.656 11.4762 123.901 12.3406C123.146 13.189 122.769 14.3976 122.769 15.9663C122.769 17.5511 123.146 18.7757 123.901 19.6401C124.656 20.5045 125.647 20.9367 126.874 20.9367C127.817 20.9367 128.604 20.7126 129.233 20.2644C129.862 19.8162 130.295 19.1759 130.531 18.3435H132.843C132.497 19.6881 131.805 20.7687 130.766 21.585C129.728 22.3854 128.431 22.7856 126.874 22.7856C125.647 22.7856 124.554 22.5055 123.594 21.9452C122.651 21.385 121.911 20.5926 121.377 19.5681C120.842 18.5436 120.575 17.343 120.575 15.9663Z" fill="#333333"/>
<path d="M106.263 15.9663C106.263 14.6057 106.531 13.4211 107.066 12.4126C107.6 11.3881 108.34 10.5957 109.283 10.0355C110.243 9.4752 111.336 9.19507 112.563 9.19507C114.151 9.19507 115.457 9.58726 116.479 10.3716C117.517 11.156 118.201 12.2445 118.532 13.6372H116.219C115.999 12.8368 115.567 12.2045 114.922 11.7403C114.293 11.2761 113.506 11.044 112.563 11.044C111.336 11.044 110.345 11.4762 109.59 12.3406C108.835 13.189 108.458 14.3976 108.458 15.9663C108.458 17.5511 108.835 18.7757 109.59 19.6401C110.345 20.5045 111.336 20.9367 112.563 20.9367C113.506 20.9367 114.293 20.7126 114.922 20.2644C115.551 19.8162 115.984 19.1759 116.219 18.3435H118.532C118.186 19.6881 117.493 20.7687 116.455 21.585C115.417 22.3854 114.12 22.7856 112.563 22.7856C111.336 22.7856 110.243 22.5055 109.283 21.9452C108.34 21.385 107.6 20.5926 107.066 19.5681C106.531 18.5436 106.263 17.343 106.263 15.9663Z" fill="#333333"/>
<path d="M103.435 9.41266V22.571H101.288V20.6261C100.879 21.2984 100.305 21.8266 99.5655 22.2108C98.842 22.579 98.0398 22.7631 97.159 22.7631C96.1524 22.7631 95.248 22.555 94.4459 22.1388C93.6437 21.7066 93.0067 21.0663 92.5349 20.2179C92.0788 19.3695 91.8507 18.337 91.8507 17.1204V9.41266H93.974V16.8322C93.974 18.1289 94.2965 19.1293 94.9413 19.8337C95.5862 20.522 96.467 20.8662 97.5837 20.8662C98.7319 20.8662 99.6362 20.506 100.297 19.7857C100.957 19.0653 101.288 18.0168 101.288 16.6401V9.41266H103.435Z" fill="#333333"/>
<path d="M83.3294 22.738C82.2442 22.738 81.269 22.546 80.4039 22.1618C79.5546 21.7616 78.8862 21.2173 78.3986 20.529C77.911 19.8246 77.6593 19.0163 77.6436 18.1038H79.9321C80.0107 18.8882 80.3253 19.5525 80.8758 20.0968C81.442 20.625 82.2599 20.8892 83.3294 20.8892C84.3518 20.8892 85.1539 20.633 85.7359 20.1208C86.3335 19.5925 86.6324 18.9202 86.6324 18.1038C86.6324 17.4635 86.4594 16.9433 86.1133 16.5431C85.7673 16.1429 85.3348 15.8387 84.8158 15.6306C84.2967 15.4225 83.5968 15.1984 82.716 14.9583C81.6308 14.6702 80.7578 14.382 80.0972 14.0939C79.4524 13.8057 78.894 13.3575 78.4222 12.7492C77.966 12.1249 77.738 11.2925 77.738 10.252C77.738 9.33959 77.966 8.5312 78.4222 7.82686C78.8783 7.12252 79.5153 6.57826 80.3332 6.19407C81.1668 5.80989 82.1183 5.6178 83.1879 5.6178C84.7292 5.6178 85.9875 6.00999 86.9627 6.79437C87.9536 7.57874 88.5119 8.61924 88.6378 9.91587H86.2785C86.1999 9.27556 85.8696 8.71529 85.2876 8.23506C84.7057 7.73882 83.935 7.4907 82.9755 7.4907C82.079 7.4907 81.3476 7.73082 80.7814 8.21105C80.2152 8.67527 79.9321 9.33159 79.9321 10.18C79.9321 10.7883 80.0972 11.2845 80.4275 11.6687C80.7736 12.0529 81.1904 12.349 81.6779 12.5571C82.1813 12.7492 82.8812 12.9733 83.7777 13.2295C84.8629 13.5336 85.7359 13.8378 86.3965 14.1419C87.0571 14.43 87.6233 14.8863 88.0951 15.5106C88.567 16.1189 88.8029 16.9513 88.8029 18.0078C88.8029 18.8242 88.5906 19.5925 88.1659 20.3129C87.7412 21.0332 87.1121 21.6175 86.2785 22.0657C85.4449 22.5139 84.4619 22.738 83.3294 22.738Z" fill="#333333"/>
<path d="M75.256 15.4861C75.256 15.9023 75.2325 16.3425 75.1853 16.8067H64.8517C64.9304 18.1034 65.3629 19.1199 66.1493 19.8562C66.9515 20.5766 67.9188 20.9367 69.0512 20.9367C69.9792 20.9367 70.7499 20.7206 71.3633 20.2884C71.9924 19.8402 72.4328 19.2479 72.6845 18.5116H74.9965C74.6505 19.7762 73.9585 20.8087 72.9204 21.6091C71.8823 22.3934 70.5926 22.7856 69.0512 22.7856C67.8244 22.7856 66.7234 22.5055 65.7482 21.9452C64.7888 21.385 64.0339 20.5926 63.4834 19.5681C62.9329 18.5276 62.6576 17.327 62.6576 15.9663C62.6576 14.6057 62.925 13.4131 63.4598 12.3886C63.9945 11.3641 64.7416 10.5797 65.7011 10.0355C66.6762 9.4752 67.7929 9.19507 69.0512 9.19507C70.278 9.19507 71.3633 9.4672 72.307 10.0115C73.2507 10.5557 73.9742 11.3081 74.4775 12.2686C74.9965 13.213 75.256 14.2855 75.256 15.4861ZM73.0383 15.0299C73.0383 14.1975 72.8575 13.4851 72.4957 12.8929C72.134 12.2846 71.6385 11.8283 71.0094 11.5242C70.396 11.204 69.7118 11.044 68.9568 11.044C67.8716 11.044 66.9436 11.3961 66.1729 12.1005C65.418 12.8048 64.9854 13.7813 64.8753 15.0299H73.0383Z" fill="#333333"/>
<path d="M57.2449 13.951C57.8425 14.0471 58.3852 14.2952 58.8727 14.6954C59.3761 15.0956 59.7693 15.5918 60.0524 16.1841C60.3512 16.7764 60.5006 17.4087 60.5006 18.081C60.5006 18.9294 60.2883 19.6978 59.8636 20.3861C59.439 21.0584 58.8177 21.5947 57.9998 21.9949C57.1977 22.3791 56.2461 22.5712 55.1451 22.5712H49.0111V5.83514H54.9092C56.0259 5.83514 56.9775 6.02724 57.7639 6.41142C58.5503 6.7796 59.1401 7.28384 59.5333 7.92415C59.9265 8.56445 60.1231 9.2848 60.1231 10.0852C60.1231 11.0777 59.8558 11.902 59.321 12.5584C58.802 13.1987 58.1099 13.6629 57.2449 13.951ZM51.158 13.0626H54.7676C55.7743 13.0626 56.5528 12.8225 57.1033 12.3423C57.6538 11.862 57.929 11.1977 57.929 10.3493C57.929 9.5009 57.6538 8.83658 57.1033 8.35635C56.5528 7.87612 55.7585 7.63601 54.7205 7.63601H51.158V13.0626ZM54.9564 20.7703C56.0259 20.7703 56.8595 20.5142 57.4572 20.0019C58.0549 19.4897 58.3537 18.7773 58.3537 17.8649C58.3537 16.9365 58.0391 16.2081 57.41 15.6799C56.7809 15.1356 55.9394 14.8635 54.8856 14.8635H51.158V20.7703H54.9564Z" fill="#333333"/>
</svg>
