<svg width="35" height="30" viewBox="0 0 24 21" fill="none" xmlns="http://www.w3.org/2000/svg">
<path d="M18 0.5H6C2.4 0.5 0 2.26471 0 6.38235V14.6176C0 18.7353 2.4 20.5 6 20.5H18C21.6 20.5 24 18.7353 24 14.6176V6.38235C24 2.26471 21.6 0.5 18 0.5ZM18.564 7.66471L14.808 10.6059C14.016 11.2294 13.008 11.5353 12 11.5353C10.992 11.5353 9.972 11.2294 9.192 10.6059L5.436 7.66471C5.052 7.35882 4.992 6.79412 5.292 6.41765C5.604 6.04118 6.168 5.97059 6.552 6.27647L10.308 9.21765C11.22 9.93529 12.768 9.93529 13.68 9.21765L17.436 6.27647C17.82 5.97059 18.396 6.02941 18.696 6.41765C19.008 6.79412 18.948 7.35882 18.564 7.66471Z" fill="white"/>
</svg>
