<svg width="90" height="15" viewBox="0 0 90 15" fill="none" xmlns="http://www.w3.org/2000/svg">
<path d="M3.54118 14.9342C3.72667 14.9342 3.91124 14.8772 4.0701 14.7638L7.80515 12.0852L11.5402 14.7638C11.6949 14.8751 11.8809 14.9347 12.0716 14.9341C12.2622 14.9334 12.4477 14.8725 12.6017 14.7601C12.7558 14.6484 12.8708 14.4909 12.9302 14.31C12.9897 14.1292 12.9905 13.9342 12.9327 13.7528L11.5397 9.25697L15.2413 6.64863C15.3947 6.53542 15.5086 6.37684 15.5669 6.19533C15.6253 6.01381 15.6251 5.81855 15.5663 5.63716C15.5071 5.45622 15.3926 5.29844 15.2389 5.18615C15.0851 5.07385 14.9 5.01271 14.7096 5.01137L10.1251 5.00448L8.66556 0.620215C8.60533 0.439604 8.4898 0.28252 8.33534 0.171208C8.18088 0.0598969 7.99531 0 7.80492 0C7.61453 0 7.42896 0.0598969 7.2745 0.171208C7.12004 0.28252 7.00451 0.439604 6.94427 0.620215L5.50948 5.00448L0.901623 5.01137C0.711019 5.01244 0.525599 5.07355 0.371706 5.18602C0.217814 5.29848 0.103274 5.45658 0.0443579 5.63785C-0.0145584 5.81913 -0.0148556 6.01435 0.0435102 6.19581C0.101876 6.37726 0.215937 6.5357 0.369487 6.64863L4.07102 9.25697L2.67801 13.7528C2.6201 13.9341 2.62088 14.1291 2.68023 14.31C2.73959 14.4908 2.85449 14.6484 3.00858 14.7601C3.16303 14.8734 3.34964 14.9344 3.54118 14.9342V14.9342Z" fill="#FFAC33"/>
<path d="M22.1384 14.9342C22.3239 14.9342 22.5085 14.8772 22.6673 14.7638L26.4024 12.0852L30.1374 14.7638C30.2922 14.8751 30.4781 14.9347 30.6688 14.9341C30.8594 14.9334 31.045 14.8725 31.1989 14.7601C31.3531 14.6484 31.468 14.4909 31.5274 14.31C31.5869 14.1292 31.5878 13.9342 31.53 13.7528L30.137 9.25697L33.8385 6.64863C33.9919 6.53542 34.1058 6.37684 34.1642 6.19533C34.2225 6.01381 34.2223 5.81855 34.1636 5.63716C34.1044 5.45622 33.9898 5.29844 33.8361 5.18615C33.6823 5.07385 33.4972 5.01271 33.3068 5.01137L28.7224 5.00448L27.2628 0.620215C27.2026 0.439604 27.087 0.28252 26.9326 0.171208C26.7781 0.0598969 26.5925 0 26.4021 0C26.2118 0 26.0262 0.0598969 25.8717 0.171208C25.7173 0.28252 25.6017 0.439604 25.5415 0.620215L24.1067 5.00448L19.4989 5.01137C19.3082 5.01244 19.1228 5.07355 18.9689 5.18602C18.815 5.29848 18.7005 5.45658 18.6416 5.63785C18.5827 5.81913 18.5824 6.01435 18.6407 6.19581C18.6991 6.37726 18.8132 6.5357 18.9667 6.64863L22.6682 9.25697L21.2752 13.7528C21.2173 13.9341 21.2181 14.1291 21.2775 14.31C21.3368 14.4908 21.4517 14.6484 21.6058 14.7601C21.7603 14.8734 21.9469 14.9344 22.1384 14.9342V14.9342Z" fill="#FFAC33"/>
<path d="M40.7356 14.9342C40.9211 14.9342 41.1057 14.8772 41.2646 14.7638L44.9996 12.0852L48.7347 14.7638C48.8894 14.8751 49.0754 14.9347 49.266 14.9341C49.4566 14.9334 49.6422 14.8725 49.7962 14.7601C49.9503 14.6484 50.0652 14.4909 50.1247 14.31C50.1841 14.1292 50.185 13.9342 50.1272 13.7528L48.7342 9.25697L52.4357 6.64863C52.5891 6.53542 52.7031 6.37684 52.7614 6.19533C52.8197 6.01381 52.8195 5.81855 52.7608 5.63716C52.7016 5.45622 52.587 5.29844 52.4333 5.18615C52.2796 5.07385 52.0944 5.01271 51.9041 5.01137L47.3196 5.00448L45.86 0.620215C45.7998 0.439604 45.6843 0.28252 45.5298 0.171208C45.3753 0.0598969 45.1898 0 44.9994 0C44.809 0 44.6234 0.0598969 44.469 0.171208C44.3145 0.28252 44.199 0.439604 44.1387 0.620215L42.7039 5.00448L38.0961 5.01137C37.9055 5.01244 37.7201 5.07355 37.5662 5.18602C37.4123 5.29848 37.2977 5.45658 37.2388 5.63785C37.1799 5.81913 37.1796 6.01435 37.238 6.19581C37.2963 6.37726 37.4104 6.5357 37.5639 6.64863L41.2655 9.25697L39.8725 13.7528C39.8146 13.9341 39.8153 14.1291 39.8747 14.31C39.934 14.4908 40.0489 14.6484 40.203 14.7601C40.3575 14.8734 40.5441 14.9344 40.7356 14.9342V14.9342Z" fill="#FFAC33"/>
<path d="M59.2627 14.9342C59.4482 14.9342 59.6327 14.8772 59.7916 14.7638L63.5266 12.0852L67.2617 14.7638C67.4164 14.8751 67.6024 14.9347 67.793 14.9341C67.9837 14.9334 68.1692 14.8725 68.3232 14.7601C68.4773 14.6484 68.5923 14.4909 68.6517 14.31C68.7111 14.1292 68.712 13.9342 68.6542 13.7528L67.2612 9.25697L70.9628 6.64863C71.1162 6.53542 71.2301 6.37684 71.2884 6.19533C71.3468 6.01381 71.3466 5.81855 71.2878 5.63716C71.2286 5.45622 71.1141 5.29844 70.9603 5.18615C70.8066 5.07385 70.6215 5.01271 70.4311 5.01137L65.8466 5.00448L64.3871 0.620215C64.3268 0.439604 64.2113 0.28252 64.0568 0.171208C63.9024 0.0598969 63.7168 0 63.5264 0C63.336 0 63.1505 0.0598969 62.996 0.171208C62.8415 0.28252 62.726 0.439604 62.6658 0.620215L61.231 5.00448L56.6231 5.01137C56.4325 5.01244 56.2471 5.07355 56.0932 5.18602C55.9393 5.29848 55.8248 5.45658 55.7659 5.63785C55.7069 5.81913 55.7066 6.01435 55.765 6.19581C55.8234 6.37726 55.9374 6.5357 56.091 6.64863L59.7925 9.25697L58.3995 13.7528C58.3416 13.9341 58.3424 14.1291 58.4017 14.31C58.4611 14.4908 58.576 14.6484 58.7301 14.7601C58.8845 14.8734 59.0711 14.9344 59.2627 14.9342V14.9342Z" fill="#FFAC33"/>
<path d="M77.9306 14.9342C78.1161 14.9342 78.3007 14.8772 78.4596 14.7638L82.1946 12.0852L85.9297 14.7638C86.0844 14.8751 86.2704 14.9347 86.461 14.9341C86.6517 14.9334 86.8372 14.8725 86.9912 14.7601C87.1453 14.6484 87.2603 14.4909 87.3197 14.31C87.3791 14.1292 87.38 13.9342 87.3222 13.7528L85.9292 9.25697L89.6307 6.64863C89.7841 6.53542 89.8981 6.37684 89.9564 6.19533C90.0147 6.01381 90.0145 5.81855 89.9558 5.63716C89.8966 5.45621 89.7821 5.29844 89.6283 5.18615C89.4746 5.07385 89.2894 5.01271 89.0991 5.01136L84.5146 5.00448L83.055 0.620215C82.9948 0.439604 82.8793 0.28252 82.7248 0.171208C82.5703 0.0598969 82.3848 0 82.1944 0C82.004 0 81.8184 0.0598969 81.664 0.171208C81.5095 0.28252 81.394 0.439604 81.3337 0.620215L79.8989 5.00448L75.2911 5.01136C75.1005 5.01244 74.9151 5.07355 74.7612 5.18602C74.6073 5.29848 74.4927 5.45658 74.4338 5.63785C74.3749 5.81912 74.3746 6.01435 74.433 6.19581C74.4913 6.37726 74.6054 6.5357 74.759 6.64863L78.4605 9.25697L77.0675 13.7528C77.0096 13.9341 77.0103 14.1291 77.0697 14.31C77.1291 14.4908 77.244 14.6484 77.3981 14.7601C77.5525 14.8734 77.7391 14.9344 77.9306 14.9342Z" fill="#FFAC33"/>
</svg>
