<svg width="108" height="20" viewBox="0 0 108 20" fill="none" xmlns="http://www.w3.org/2000/svg">
<rect width="20" height="20" rx="4" fill="#00B67A"/>
<path d="M10 13.6761L13.0417 12.8616L14.3125 17L10 13.6761ZM17 8.32704H11.6458L10 3L8.35417 8.32704H3L7.33334 11.6289L5.6875 16.956L10.0208 13.6541L12.6875 11.6289L17 8.32704Z" fill="white"/>
<rect x="22" width="20" height="20" rx="4" fill="#00B67A"/>
<path d="M32 13.6761L35.0417 12.8616L36.3125 17L32 13.6761ZM39 8.32704H33.6458L32 3L30.3542 8.32704H25L29.3333 11.6289L27.6875 16.956L32.0208 13.6541L34.6875 11.6289L39 8.32704Z" fill="white"/>
<rect x="44" width="20" height="20" rx="4" fill="#00B67A"/>
<path d="M54 13.6761L57.0417 12.8616L58.3125 17L54 13.6761ZM61 8.32704H55.6458L54 3L52.3542 8.32704H47L51.3333 11.6289L49.6875 16.956L54.0208 13.6541L56.6875 11.6289L61 8.32704Z" fill="white"/>
<rect x="66" width="20" height="20" rx="4" fill="#00B67A"/>
<path d="M76 13.6761L79.0417 12.8616L80.3125 17L76 13.6761ZM83 8.32704H77.6458L76 3L74.3542 8.32704H69L73.3333 11.6289L71.6875 16.956L76.0208 13.6541L78.6875 11.6289L83 8.32704Z" fill="white"/>
<rect x="88" width="20" height="20" rx="4" fill="#00B67A"/>
<path d="M98 13.6761L101.042 12.8616L102.313 17L98 13.6761ZM105 8.32704H99.6458L98 3L96.3542 8.32704H91L95.3333 11.6289L93.6875 16.956L98.0208 13.6541L100.687 11.6289L105 8.32704Z" fill="white"/>
</svg>
