<svg width="30" height="30" viewBox="0 0 30 30" fill="none" xmlns="http://www.w3.org/2000/svg">
<mask id="mask0_1_291" style="mask-type:alpha" maskUnits="userSpaceOnUse" x="0" y="0" width="30" height="30">
<path d="M8.3375 17.5H5C3.625 17.5 2.5 18.625 2.5 20V26.25C2.5 26.9375 3.0625 27.5 3.75 27.5H8.3375C9.025 27.5 9.5875 26.9375 9.5875 26.25V18.75C9.5875 18.0625 9.025 17.5 8.3375 17.5Z" fill="url(#paint0_linear_1_291)"/>
<path d="M16.6625 12.5H13.325C11.95 12.5 10.825 13.625 10.825 15V26.25C10.825 26.9375 11.3875 27.5 12.075 27.5H17.9125C18.6 27.5 19.1625 26.9375 19.1625 26.25V15C19.1625 13.625 18.05 12.5 16.6625 12.5Z" fill="url(#paint1_linear_1_291)"/>
<path d="M25 21.25H21.6625C20.975 21.25 20.4125 21.8125 20.4125 22.5V26.25C20.4125 26.9375 20.975 27.5 21.6625 27.5H26.25C26.9375 27.5 27.5 26.9375 27.5 26.25V23.75C27.5 22.375 26.375 21.25 25 21.25Z" fill="url(#paint2_linear_1_291)"/>
<path d="M18.7625 6.0626C19.15 5.6751 19.3 5.2126 19.175 4.8126C19.05 4.4126 18.6625 4.1251 18.1125 4.0376L16.9125 3.8376C16.8625 3.8376 16.75 3.7501 16.725 3.7001L16.0625 2.3751C15.5625 1.3626 14.425 1.3626 13.925 2.3751L13.2625 3.7001C13.25 3.7501 13.1375 3.8376 13.0875 3.8376L11.8875 4.0376C11.3375 4.1251 10.9625 4.4126 10.825 4.8126C10.7 5.2126 10.85 5.6751 11.2375 6.0626L12.1625 7.0001C12.2125 7.0376 12.25 7.1876 12.2375 7.2376L11.975 8.3876C11.775 9.2501 12.1 9.6376 12.3125 9.7876C12.525 9.9376 12.9875 10.1376 13.75 9.6876L14.875 9.0251C14.925 8.9876 15.0875 8.9876 15.1375 9.0251L16.25 9.6876C16.6 9.9001 16.8875 9.9626 17.1125 9.9626C17.375 9.9626 17.5625 9.8626 17.675 9.7876C17.8875 9.6376 18.2125 9.2501 18.0125 8.3876L17.75 7.2376C17.7375 7.1751 17.775 7.0376 17.825 7.0001L18.7625 6.0626Z" fill="url(#paint3_linear_1_291)"/>
</mask>
<g mask="url(#mask0_1_291)">
<rect width="30" height="30" fill="#3E5DD9"/>
</g>
<defs>
<linearGradient id="paint0_linear_1_291" x1="6.04375" y1="17.5" x2="6.04375" y2="27.5" gradientUnits="userSpaceOnUse">
<stop stop-color="#171717"/>
<stop offset="1" stop-color="#7D7D7D"/>
</linearGradient>
<linearGradient id="paint1_linear_1_291" x1="14.9938" y1="12.5" x2="14.9938" y2="27.5" gradientUnits="userSpaceOnUse">
<stop stop-color="#171717"/>
<stop offset="1" stop-color="#7D7D7D"/>
</linearGradient>
<linearGradient id="paint2_linear_1_291" x1="23.9563" y1="21.25" x2="23.9563" y2="27.5" gradientUnits="userSpaceOnUse">
<stop stop-color="#171717"/>
<stop offset="1" stop-color="#7D7D7D"/>
</linearGradient>
<linearGradient id="paint3_linear_1_291" x1="15" y1="1.61572" x2="15" y2="9.96411" gradientUnits="userSpaceOnUse">
<stop stop-color="#171717"/>
<stop offset="1" stop-color="#7D7D7D"/>
</linearGradient>
</defs>
</svg>
